<svg width="500" height="500" viewBox="0 0 500 500" fill="none" xmlns="http://www.w3.org/2000/svg">
<path d="M263.872 264.817L179.722 262.817L392.243 398.246L401.868 388.341L258.821 180.817L263.872 264.817Z" fill="white"/>
<path d="M249.101 97C164.093 97 95 166.143 95 251C95 335.857 164.188 405 249.101 405C276.167 405 301.422 397.857 323.531 385.571L326.962 383.762L285.506 357.286C274.07 361.19 261.872 363.476 249.101 363.476C232.71 363.476 217.271 359.952 203.166 353.667C200.784 352.619 198.401 351.476 196.114 350.238C193.636 348.905 191.254 347.476 188.967 345.952C177.816 338.905 168 329.952 159.995 319.476C154.849 312.81 150.37 305.476 146.844 297.762C145.7 295.19 144.747 292.524 143.699 289.952C140.458 281.381 138.267 272.333 137.218 262.905C136.742 259 136.456 255.095 136.456 251C136.456 246.905 136.742 242.81 137.123 238.81C142.65 187.667 182.677 146.81 233.377 139.762C238.523 139 243.765 138.524 249.006 138.524C251.96 138.524 254.82 138.714 257.679 139C315.717 143.476 361.556 191.952 361.556 251.095C361.556 262.143 359.746 272.714 356.696 282.81L384.715 323.476C396.341 301.857 403.108 277.286 403.108 251.095C403.108 166.143 333.919 97.0953 249.006 97.0953L249.101 97Z" fill="white"/>
</svg>
